# xmcd 
#
# Track frame offsets:
#	150
#	19462
#	44175
#	63940
#	87585
#	104480
#	120890
#	133745
#	152705
#	161767
#	196265
#	211637
#	229110
#	245937
#
# Disc length: 3497 seconds
#
# Revision: 0
# Processed by: cddbd v1.4b41PL1 Copyright (c) Steve Scherf et al.
# Submitted via: GrayWolf CD JukeBox 01.01.07
#
DISCID=c80da70e
DTITLE=Ray Charles - My Early Years 1930-1960
DYEAR=1900
DGENRE=
TTITLE0=I Can See Clearly Now
TTITLE1=Dont' You Love Me Anymore
TTITLE2=Compared to What
TTITLE3=I Can't Change it, But I'm trying to right
TTITLE4=Drift Away
TTITLE5=Georgia
TTITLE6=Unchain My Heart
TTITLE7=I Can't Stop Loving You
TTITLE8=Hit the Road Jack
TTITLE9=Blues in the Night
TTITLE10=Every Saturday Night
TTITLE11=There 'll Be No Peace Without All Men As One
TTITLE12=Sunshine
TTITLE13=America
EXTD=
EXTT0=
EXTT1=
EXTT2=
EXTT3=
EXTT4=
EXTT5=
EXTT6=
EXTT7=
EXTT8=
EXTT9=
EXTT10=
EXTT11=
EXTT12=
EXTT13=
PLAYORDER=
